HIERARCHY
ROOT root
{
	OFFSET 0.000000 0.000000 0.000000
	CHANNELS 6 Xposition Yposition Zposition Zrotation Yrotation Xrotation
	JOINT lhip
	{
		OFFSET 0.058581 -0.082280 -0.017664
		CHANNELS 3 Zrotation Yrotation Xrotation
		JOINT lknee
		{
			OFFSET 0.043451 -0.386469 0.008037
			CHANNELS 3 Zrotation Yrotation Xrotation
			JOINT lankle
			{
				OFFSET -0.014790 -0.426874 -0.037428
				CHANNELS 3 Zrotation Yrotation Xrotation
				JOINT ltoe
				{
					OFFSET 0.041054 -0.060286 0.122042
					CHANNELS 3 Zrotation Yrotation Xrotation
					End Site
					{
						OFFSET 0.000000 0.000000 0.000000
					}
				}
			}
		}
	}
	JOINT rhip
	{
		OFFSET -0.060310 -0.090513 -0.013543
		CHANNELS 3 Zrotation Yrotation Xrotation
		JOINT rknee
		{
			OFFSET -0.043257 -0.383688 -0.004843
			CHANNELS 3 Zrotation Yrotation Xrotation
			JOINT rankle
			{
				OFFSET 0.019056 -0.420046 -0.034562
				CHANNELS 3 Zrotation Yrotation Xrotation
				JOINT rtoe
				{
					OFFSET -0.034840 -0.062106 0.130323
					CHANNELS 3 Zrotation Yrotation Xrotation
					End Site
					{
						OFFSET 0.000000 0.000000 0.000000
					}
				}
			}
		}
	}
	JOINT lowerback
	{
		OFFSET 0.004439 0.124404 -0.038385
		CHANNELS 3 Zrotation Yrotation Xrotation
		JOINT upperback
		{
			OFFSET 0.004488 0.137956 0.026820
			CHANNELS 3 Zrotation Yrotation Xrotation
			JOINT chest
			{
				OFFSET -0.002265 0.056032 0.002855
				CHANNELS 3 Zrotation Yrotation Xrotation
				JOINT lowerneck
				{
					OFFSET -0.013390 0.211636 -0.033468
					CHANNELS 3 Zrotation Yrotation Xrotation
					JOINT upperneck
					{
						OFFSET 0.010113 0.088937 0.050410
						CHANNELS 3 Zrotation Yrotation Xrotation
						End Site
						{
							OFFSET 0.000000 0.000000 0.000000
						}
					}
				}
				JOINT lclavicle
				{
					OFFSET 0.071702 0.114000 -0.018898
					CHANNELS 3 Zrotation Yrotation Xrotation
					JOINT lshoulder
					{
						OFFSET 0.122921 0.045205 -0.019046
						CHANNELS 3 Zrotation Yrotation Xrotation
						JOINT lelbow
						{
							OFFSET 0.255332 -0.015649 -0.022946
							CHANNELS 3 Zrotation Yrotation Xrotation
							JOINT lwrist
							{
								OFFSET 0.265709 0.012698 -0.007375
								CHANNELS 3 Zrotation Yrotation Xrotation
								End Site
								{
									OFFSET 0.000000 0.000000 0.000000
								}
							}
						}
					}
				}
				JOINT rclavicle
				{
					OFFSET -0.082954 0.112472 -0.023707
					CHANNELS 3 Zrotation Yrotation Xrotation
					JOINT rshoulder
					{
						OFFSET -0.113228 0.046853 -0.008472
						CHANNELS 3 Zrotation Yrotation Xrotation
						JOINT relbow
						{
							OFFSET -0.260127 -0.014369 -0.031269
							CHANNELS 3 Zrotation Yrotation Xrotation
							JOINT rwrist
							{
								OFFSET -0.269108 0.006794 -0.006027
								CHANNELS 3 Zrotation Yrotation Xrotation
								End Site
								{
									OFFSET 0.000000 0.000000 0.000000
								}
							}
						}
					}
				}
			}
		}
	}
}
MOTION
Frames: 13
Frame Time: 0.033333
-0.348572 0.515936 0.905321 97.964629 -0.704546 97.810858 2.287944 14.647559 -16.368063 -2.545360 18.788696 52.324361 0.813531 12.651790 -35.902546 0.000000 -0.000000 0.000000 -3.217599 -5.204163 -48.671094 -3.666488 -22.841286 59.084156 1.065706 -11.825163 -18.695392 0.000000 -0.000000 0.000000 1.836825 -7.494310 44.975882 6.070828 -0.952751 -5.735438 4.009440 -0.210205 -2.909696 1.373699 -8.842308 -15.594398 3.279597 -12.325437 11.458745 -28.484276 -13.673591 2.000506 -36.219643 -12.242092 8.883577 19.785406 -60.960264 -14.748839 9.232421 -11.356352 -17.117236 33.182258 17.490606 4.845982 38.796713 11.768920 0.958290 -38.240101 34.050636 -51.015477 4.559881 10.893720 -22.276700 
-0.340854 0.519325 0.904655 95.436663 -0.794140 97.828355 1.885742 14.638316 -15.745188 -2.079937 19.006322 52.996815 0.608224 12.676574 -35.116078 0.000000 -0.000000 0.000000 -2.492085 -5.298518 -47.960462 -4.088863 -23.620706 58.398901 0.359892 -12.825998 -19.660496 0.000000 -0.000000 0.000000 1.933246 -7.531300 44.725715 5.844355 -0.982677 -5.709743 3.964272 -0.136878 -2.903432 0.522398 -7.858326 -15.464973 2.772381 -10.736629 11.453370 -28.960165 -13.612946 1.781986 -36.048712 -11.711366 9.034099 19.178547 -60.741505 -13.595916 9.385481 -11.383904 -17.491048 33.372819 17.409346 5.027683 38.305254 11.627991 0.889695 -37.878367 34.054886 -50.802409 4.468276 10.693719 -22.490105 
-0.330774 0.522496 0.903613 92.974533 -1.224902 96.910466 1.615944 14.662733 -14.490918 -1.755722 18.874573 54.693379 -0.100416 12.322570 -33.486153 0.000000 -0.000000 0.000000 -2.969083 -5.462619 -46.136502 -3.092687 -22.768080 58.353477 0.522821 -11.391755 -21.268689 0.000000 -0.000000 0.000000 2.259841 -7.464402 44.991294 5.469468 -1.111299 -5.212979 3.478513 -0.195882 -2.956606 -0.367331 -6.817519 -15.538990 2.104829 -10.097392 11.752383 -28.771602 -14.063873 1.827263 -36.120229 -11.257185 9.079385 19.078468 -60.178058 -13.987863 8.477127 -11.638776 -16.552870 33.142085 17.573232 4.981347 38.402462 11.097265 0.608507 -37.931366 34.222500 -50.848117 5.428186 10.381231 -22.007939 
-0.321226 0.522244 0.902894 90.796801 -1.440300 96.266532 2.146740 14.465611 -14.657981 -1.012198 18.622251 58.567779 -0.669154 11.195210 -30.567668 0.000000 -0.000000 0.000000 -2.822755 -4.893962 -44.627472 -2.678701 -21.661900 58.070860 0.279644 -10.693260 -22.791265 0.000000 -0.000000 0.000000 2.264868 -6.982089 44.971951 5.316512 -0.959190 -4.657642 3.272496 -0.205658 -3.234773 -1.656273 -5.429874 -15.059850 1.195862 -8.953917 12.102797 -28.692142 -14.452385 1.827482 -36.076921 -11.075484 9.128257 18.180925 -58.925663 -12.960116 7.714167 -11.787278 -15.505191 33.345562 17.378353 4.948721 38.168733 10.598226 0.398298 -37.745533 34.085499 -50.473863 5.812560 10.334854 -21.993649 
-0.314077 0.521818 0.902384 89.196090 -1.866476 96.313241 2.519100 12.780665 -16.791939 -0.456057 18.430923 63.842380 -1.358192 10.222144 -26.620291 0.000000 -0.000000 0.000000 -2.792182 -4.217356 -44.066643 -2.799560 -21.444474 57.542475 -0.665175 -11.637355 -24.059028 0.000000 -0.000000 0.000000 2.331969 -6.647106 44.546961 5.127854 -0.871405 -4.875949 2.918190 -0.377043 -3.064873 -2.761990 -4.286275 -15.089733 0.556494 -7.996558 12.795876 -28.465058 -14.455421 1.836907 -36.237347 -11.361894 9.444185 17.901131 -57.886530 -12.450938 7.283729 -11.931724 -15.413014 33.611099 17.012839 4.885774 38.017185 10.389320 0.600623 -37.387837 33.677889 -50.076793 5.616572 10.447561 -22.333874 
-0.306411 0.521650 0.901989 87.348542 -2.297542 95.651139 3.142018 11.596992 -18.608226 -0.351499 17.669441 69.373117 -2.854251 8.830801 -22.112697 0.000000 -0.000000 0.000000 -2.574780 -3.535645 -42.977488 -2.753368 -20.051765 57.578995 -1.343648 -11.842161 -24.976358 0.000000 -0.000000 0.000000 2.066482 -6.003468 44.839029 4.807463 -0.756285 -4.597496 2.693857 -0.360711 -3.161268 -3.761103 -3.705379 -15.058253 0.352038 -6.987011 12.758959 -28.543012 -14.592366 1.659882 -36.170751 -11.188641 9.817106 18.202348 -57.571957 -12.893779 8.082669 -11.594912 -15.917748 33.641919 17.158245 4.863931 37.933831 9.841603 0.684774 -37.414930 33.290713 -50.537092 6.261525 10.191465 -21.762586 
-0.299173 0.521738 0.901947 85.653083 -2.665731 94.822784 3.485168 10.194133 -20.813475 -0.527633 16.420806 74.227615 -3.811544 8.337627 -19.510101 0.000000 -0.000000 0.000000 -2.123204 -2.579423 -41.778681 -2.797589 -18.238065 57.508961 -1.958593 -12.469453 -25.780324 0.000000 -0.000000 0.000000 1.920545 -5.396913 45.567498 4.314250 -0.699879 -4.511172 2.387621 -0.266227 -3.188420 -4.575625 -3.481039 -15.004501 0.412329 -6.234318 12.399910 -29.156429 -14.648801 1.459212 -35.512278 -10.996573 9.947791 18.402153 -57.552955 -12.630026 9.214073 -11.011920 -16.341013 33.689184 17.379983 5.000344 37.463444 8.966597 1.011466 -36.987920 33.586652 -49.507890 5.220147 10.317905 -23.072903 
-0.292653 0.522051 0.902278 84.613700 -3.338099 94.007242 3.326281 8.006849 -23.647928 -1.312500 14.996273 77.415790 -3.387667 7.418301 -20.846294 0.000000 -0.000000 0.000000 -2.373662 -2.160022 -40.710494 -2.835517 -17.168126 57.808161 -1.751915 -12.830937 -26.546437 0.000000 -0.000000 0.000000 1.718109 -4.940647 46.406221 3.838520 -0.994971 -4.357466 1.959991 -0.304923 -3.261362 -4.953725 -3.136979 -15.319903 0.431231 -5.560340 12.389013 -29.485174 -14.560840 1.339950 -34.976108 -10.925474 9.901401 18.606912 -57.490963 -12.906007 9.492239 -10.961245 -16.388661 33.702934 17.509748 4.978571 37.338368 8.730006 1.440163 -36.718279 33.337033 -49.234779 4.999234 10.565552 -23.395043 
-0.287165 0.520909 0.903539 83.745424 -3.747648 93.541490 3.943473 5.910629 -27.255481 -1.452567 14.326459 78.602593 -2.861898 7.393736 -21.848860 0.000000 -0.000000 0.000000 -2.251161 -1.650760 -39.862329 -2.759184 -16.109394 57.683596 -1.463435 -13.211169 -27.018422 0.000000 -0.000000 0.000000 1.228799 -4.040242 47.248072 3.685088 -1.226182 -4.501703 2.032628 -0.225620 -3.317257 -5.312011 -2.762496 -15.235034 0.405534 -5.140161 12.010125 -29.951775 -14.496963 1.178100 -34.941624 -10.968445 10.023518 18.652934 -56.785967 -13.263584 9.734915 -10.857301 -16.811094 33.704591 17.437262 4.845293 36.979709 8.519330 1.916255 -36.422607 33.374226 -48.785713 4.583055 10.438381 -23.392698 
-0.281114 0.520703 0.905521 82.713926 -4.125771 93.062098 4.348884 4.522232 -30.786216 -1.264418 13.641760 77.693817 -2.117271 7.446566 -22.545158 0.000000 -0.000000 0.000000 -2.315720 -1.491420 -38.822446 -2.459488 -15.373565 57.374496 -1.159297 -13.234185 -27.210678 0.000000 -0.000000 0.000000 0.930060 -3.242646 48.168044 3.349926 -1.403654 -4.627737 1.930342 -0.094667 -3.343269 -5.706033 -2.450365 -15.280319 0.479752 -5.001915 12.018056 -30.362454 -14.431544 1.098467 -35.033390 -10.905152 10.098422 18.191915 -56.230716 -13.297867 10.012068 -10.549014 -17.281801 33.563249 17.493123 4.847394 36.878064 8.375905 2.114079 -36.477619 33.354468 -48.897086 4.084769 10.538685 -23.349256 
-0.273677 0.520306 0.907445 81.243320 -4.330400 92.302970 4.911983 4.474490 -33.444736 -0.736753 13.223469 74.583777 -1.831976 7.710597 -23.823458 0.000000 -0.000000 0.000000 -1.906186 -1.412138 -37.310213 -2.399099 -14.048587 56.976053 -0.894087 -12.757298 -27.610860 0.000000 -0.000000 0.000000 0.872980 -2.288928 49.267617 2.678562 -1.393477 -4.585694 1.819932 -0.035542 -3.356346 -6.325106 -1.864533 -15.282357 0.538329 -4.709411 12.105875 -30.345298 -14.523529 1.393193 -35.636403 -10.493199 9.376155 18.485740 -55.381722 -12.574409 7.559172 -10.769494 -15.702242 32.978639 17.680175 5.089084 36.994199 8.168587 1.763958 -36.046242 33.789903 -47.129862 3.847976 10.662369 -24.123973 
-0.267169 0.519144 0.909230 80.557457 -4.813656 92.285428 5.424891 4.090616 -36.572977 -1.950334 13.173206 69.476852 -1.219986 7.435402 -23.756829 0.000000 -0.000000 0.000000 -2.044355 -1.770459 -36.650459 -2.142776 -13.067833 56.684767 -0.741835 -12.216936 -27.939477 0.000000 -0.000000 0.000000 0.444567 -1.456839 49.332644 2.525939 -1.796185 -4.430383 1.695766 0.194185 -3.378917 -6.673399 -1.646123 -15.077818 0.873254 -4.961429 12.057205 -30.621032 -14.359685 1.546990 -35.557187 -10.187968 9.669857 17.463035 -55.483203 -12.372107 8.460925 -10.547347 -17.001483 32.959400 17.524621 5.458911 37.265914 8.406913 1.543190 -36.588672 33.737824 -47.810181 4.345570 10.591287 -22.732026 
-0.260024 0.519552 0.911556 79.839344 -5.189689 91.972590 5.604828 3.983496 -38.433472 -3.858436 12.829427 62.399329 -0.042886 7.236371 -23.010534 0.000000 -0.000000 0.000000 -2.248861 -2.275255 -35.756635 -1.573811 -12.027861 56.586692 -0.443409 -11.683037 -27.997021 0.000000 -0.000000 0.000000 0.464538 -0.942062 49.650738 2.012137 -1.914295 -4.194655 1.442166 0.107474 -3.388989 -6.954291 -1.394419 -15.209985 0.767207 -4.956438 12.464921 -30.898494 -14.204647 1.305483 -35.623421 -9.673609 9.834991 16.899349 -55.203596 -11.351859 8.238854 -10.746928 -16.987551 32.683885 17.467385 5.267523 37.375823 8.405265 1.570784 -36.446913 33.847152 -47.945793 4.703136 10.316539 -22.741641 
